<mxfile host="app.diagrams.net" modified="2024-07-09T07:18:19.951Z" agent="Mozilla/5.0 (Windows NT 10.0; Win64; x64) AppleWebKit/537.36 (KHTML, like Gecko) Chrome/126.0.0.0 Safari/537.36" etag="tb--hTob3bOppTYa8h9k" version="24.2.5" type="github">
  <diagram name="第 1 页" id="qqxL5CSrk2zaB-fKypSh">
    <mxGraphModel dx="1434" dy="780" grid="1" gridSize="10" guides="1" tooltips="1" connect="1" arrows="1" fold="1" page="1" pageScale="1" pageWidth="827" pageHeight="1169" math="0" shadow="0">
      <root>
        <mxCell id="0" />
        <mxCell id="1" parent="0" />
        <mxCell id="MN-8AR3ypXYrp9H_DOzf-1" value="sr-proxy-01" style="rounded=0;whiteSpace=wrap;html=1;" vertex="1" parent="1">
          <mxGeometry x="270" y="555" width="120" height="60" as="geometry" />
        </mxCell>
        <mxCell id="MN-8AR3ypXYrp9H_DOzf-2" value="sr-proxy-02" style="rounded=0;whiteSpace=wrap;html=1;" vertex="1" parent="1">
          <mxGeometry x="460" y="555" width="120" height="60" as="geometry" />
        </mxCell>
        <mxCell id="MN-8AR3ypXYrp9H_DOzf-3" value="sr-01" style="rounded=0;whiteSpace=wrap;html=1;" vertex="1" parent="1">
          <mxGeometry x="170" y="360" width="120" height="60" as="geometry" />
        </mxCell>
        <mxCell id="MN-8AR3ypXYrp9H_DOzf-4" value="sr-02" style="rounded=0;whiteSpace=wrap;html=1;" vertex="1" parent="1">
          <mxGeometry x="360" y="360" width="120" height="60" as="geometry" />
        </mxCell>
        <mxCell id="MN-8AR3ypXYrp9H_DOzf-5" value="sr-03" style="rounded=0;whiteSpace=wrap;html=1;" vertex="1" parent="1">
          <mxGeometry x="560" y="360" width="120" height="60" as="geometry" />
        </mxCell>
        <mxCell id="MN-8AR3ypXYrp9H_DOzf-6" value="nginx" style="rounded=0;whiteSpace=wrap;html=1;" vertex="1" parent="1">
          <mxGeometry x="370" y="660" width="120" height="60" as="geometry" />
        </mxCell>
        <mxCell id="MN-8AR3ypXYrp9H_DOzf-8" value="" style="endArrow=classic;html=1;rounded=0;exitX=0.5;exitY=1;exitDx=0;exitDy=0;entryX=0.5;entryY=0;entryDx=0;entryDy=0;" edge="1" parent="1" source="MN-8AR3ypXYrp9H_DOzf-3" target="MN-8AR3ypXYrp9H_DOzf-1">
          <mxGeometry width="50" height="50" relative="1" as="geometry">
            <mxPoint x="200" y="510" as="sourcePoint" />
            <mxPoint x="250" y="460" as="targetPoint" />
          </mxGeometry>
        </mxCell>
        <mxCell id="MN-8AR3ypXYrp9H_DOzf-9" value="" style="endArrow=classic;startArrow=classic;html=1;rounded=0;exitX=1;exitY=0.5;exitDx=0;exitDy=0;entryX=0;entryY=0.5;entryDx=0;entryDy=0;" edge="1" parent="1" source="MN-8AR3ypXYrp9H_DOzf-1" target="MN-8AR3ypXYrp9H_DOzf-2">
          <mxGeometry width="50" height="50" relative="1" as="geometry">
            <mxPoint x="390" y="530" as="sourcePoint" />
            <mxPoint x="440" y="480" as="targetPoint" />
          </mxGeometry>
        </mxCell>
        <mxCell id="MN-8AR3ypXYrp9H_DOzf-12" value="" style="endArrow=classic;html=1;rounded=0;exitX=0.5;exitY=1;exitDx=0;exitDy=0;entryX=0.5;entryY=0;entryDx=0;entryDy=0;" edge="1" parent="1" source="MN-8AR3ypXYrp9H_DOzf-4" target="MN-8AR3ypXYrp9H_DOzf-1">
          <mxGeometry width="50" height="50" relative="1" as="geometry">
            <mxPoint x="240" y="430" as="sourcePoint" />
            <mxPoint x="410" y="500" as="targetPoint" />
          </mxGeometry>
        </mxCell>
        <mxCell id="MN-8AR3ypXYrp9H_DOzf-13" value="" style="endArrow=classic;html=1;rounded=0;exitX=0.5;exitY=1;exitDx=0;exitDy=0;entryX=0.5;entryY=0;entryDx=0;entryDy=0;" edge="1" parent="1" source="MN-8AR3ypXYrp9H_DOzf-5" target="MN-8AR3ypXYrp9H_DOzf-1">
          <mxGeometry width="50" height="50" relative="1" as="geometry">
            <mxPoint x="250" y="440" as="sourcePoint" />
            <mxPoint x="350" y="575" as="targetPoint" />
          </mxGeometry>
        </mxCell>
        <mxCell id="MN-8AR3ypXYrp9H_DOzf-14" value="" style="endArrow=classic;html=1;rounded=0;exitX=0.5;exitY=1;exitDx=0;exitDy=0;entryX=0.5;entryY=0;entryDx=0;entryDy=0;" edge="1" parent="1" source="MN-8AR3ypXYrp9H_DOzf-3" target="MN-8AR3ypXYrp9H_DOzf-2">
          <mxGeometry width="50" height="50" relative="1" as="geometry">
            <mxPoint x="260" y="450" as="sourcePoint" />
            <mxPoint x="360" y="585" as="targetPoint" />
          </mxGeometry>
        </mxCell>
        <mxCell id="MN-8AR3ypXYrp9H_DOzf-15" value="" style="endArrow=classic;html=1;rounded=0;exitX=0.5;exitY=1;exitDx=0;exitDy=0;entryX=0.5;entryY=0;entryDx=0;entryDy=0;" edge="1" parent="1" source="MN-8AR3ypXYrp9H_DOzf-4" target="MN-8AR3ypXYrp9H_DOzf-2">
          <mxGeometry width="50" height="50" relative="1" as="geometry">
            <mxPoint x="270" y="460" as="sourcePoint" />
            <mxPoint x="370" y="595" as="targetPoint" />
          </mxGeometry>
        </mxCell>
        <mxCell id="MN-8AR3ypXYrp9H_DOzf-16" value="" style="endArrow=classic;html=1;rounded=0;exitX=0.5;exitY=1;exitDx=0;exitDy=0;entryX=0.5;entryY=0;entryDx=0;entryDy=0;" edge="1" parent="1" source="MN-8AR3ypXYrp9H_DOzf-5" target="MN-8AR3ypXYrp9H_DOzf-2">
          <mxGeometry width="50" height="50" relative="1" as="geometry">
            <mxPoint x="280" y="470" as="sourcePoint" />
            <mxPoint x="380" y="605" as="targetPoint" />
          </mxGeometry>
        </mxCell>
        <mxCell id="MN-8AR3ypXYrp9H_DOzf-17" value="" style="endArrow=classic;html=1;rounded=0;exitX=0.5;exitY=1;exitDx=0;exitDy=0;entryX=0.5;entryY=0;entryDx=0;entryDy=0;" edge="1" parent="1" source="MN-8AR3ypXYrp9H_DOzf-1" target="MN-8AR3ypXYrp9H_DOzf-6">
          <mxGeometry width="50" height="50" relative="1" as="geometry">
            <mxPoint x="290" y="480" as="sourcePoint" />
            <mxPoint x="390" y="615" as="targetPoint" />
          </mxGeometry>
        </mxCell>
        <mxCell id="MN-8AR3ypXYrp9H_DOzf-18" value="" style="endArrow=classic;html=1;rounded=0;exitX=0.5;exitY=1;exitDx=0;exitDy=0;" edge="1" parent="1" source="MN-8AR3ypXYrp9H_DOzf-2">
          <mxGeometry width="50" height="50" relative="1" as="geometry">
            <mxPoint x="300" y="490" as="sourcePoint" />
            <mxPoint x="430" y="660" as="targetPoint" />
          </mxGeometry>
        </mxCell>
        <mxCell id="MN-8AR3ypXYrp9H_DOzf-20" value="" style="rounded=0;whiteSpace=wrap;html=1;dashed=1;" vertex="1" parent="1">
          <mxGeometry x="707" y="490" width="303" height="180" as="geometry" />
        </mxCell>
        <mxCell id="MN-8AR3ypXYrp9H_DOzf-22" value="query-id-01" style="text;html=1;align=center;verticalAlign=middle;whiteSpace=wrap;rounded=0;" vertex="1" parent="1">
          <mxGeometry x="730" y="500" width="80" height="30" as="geometry" />
        </mxCell>
        <mxCell id="MN-8AR3ypXYrp9H_DOzf-23" value="sr-proxy-01" style="text;html=1;align=center;verticalAlign=middle;whiteSpace=wrap;rounded=0;" vertex="1" parent="1">
          <mxGeometry x="890" y="500" width="80" height="30" as="geometry" />
        </mxCell>
        <mxCell id="MN-8AR3ypXYrp9H_DOzf-24" value="" style="endArrow=classic;html=1;rounded=0;exitX=1;exitY=0.5;exitDx=0;exitDy=0;entryX=0;entryY=0.5;entryDx=0;entryDy=0;" edge="1" parent="1" source="MN-8AR3ypXYrp9H_DOzf-22" target="MN-8AR3ypXYrp9H_DOzf-23">
          <mxGeometry width="50" height="50" relative="1" as="geometry">
            <mxPoint x="850" y="600" as="sourcePoint" />
            <mxPoint x="900" y="550" as="targetPoint" />
          </mxGeometry>
        </mxCell>
        <mxCell id="MN-8AR3ypXYrp9H_DOzf-29" value="query-id-21" style="text;html=1;align=center;verticalAlign=middle;whiteSpace=wrap;rounded=0;" vertex="1" parent="1">
          <mxGeometry x="730" y="540" width="80" height="30" as="geometry" />
        </mxCell>
        <mxCell id="MN-8AR3ypXYrp9H_DOzf-30" value="sr-proxy-02" style="text;html=1;align=center;verticalAlign=middle;whiteSpace=wrap;rounded=0;" vertex="1" parent="1">
          <mxGeometry x="890" y="540" width="80" height="30" as="geometry" />
        </mxCell>
        <mxCell id="MN-8AR3ypXYrp9H_DOzf-31" value="" style="endArrow=classic;html=1;rounded=0;exitX=1;exitY=0.5;exitDx=0;exitDy=0;entryX=0;entryY=0.5;entryDx=0;entryDy=0;" edge="1" parent="1" source="MN-8AR3ypXYrp9H_DOzf-29" target="MN-8AR3ypXYrp9H_DOzf-30">
          <mxGeometry width="50" height="50" relative="1" as="geometry">
            <mxPoint x="850" y="640" as="sourcePoint" />
            <mxPoint x="900" y="590" as="targetPoint" />
          </mxGeometry>
        </mxCell>
        <mxCell id="MN-8AR3ypXYrp9H_DOzf-32" value="query-id-32" style="text;html=1;align=center;verticalAlign=middle;whiteSpace=wrap;rounded=0;" vertex="1" parent="1">
          <mxGeometry x="730" y="580" width="80" height="30" as="geometry" />
        </mxCell>
        <mxCell id="MN-8AR3ypXYrp9H_DOzf-33" value="sr-proxy-01" style="text;html=1;align=center;verticalAlign=middle;whiteSpace=wrap;rounded=0;" vertex="1" parent="1">
          <mxGeometry x="890" y="580" width="80" height="30" as="geometry" />
        </mxCell>
        <mxCell id="MN-8AR3ypXYrp9H_DOzf-34" value="" style="endArrow=classic;html=1;rounded=0;exitX=1;exitY=0.5;exitDx=0;exitDy=0;entryX=0;entryY=0.5;entryDx=0;entryDy=0;" edge="1" parent="1" source="MN-8AR3ypXYrp9H_DOzf-32" target="MN-8AR3ypXYrp9H_DOzf-33">
          <mxGeometry width="50" height="50" relative="1" as="geometry">
            <mxPoint x="850" y="680" as="sourcePoint" />
            <mxPoint x="900" y="630" as="targetPoint" />
          </mxGeometry>
        </mxCell>
        <mxCell id="MN-8AR3ypXYrp9H_DOzf-35" value="..." style="text;html=1;align=center;verticalAlign=middle;whiteSpace=wrap;rounded=0;fontStyle=1" vertex="1" parent="1">
          <mxGeometry x="730" y="620" width="80" height="30" as="geometry" />
        </mxCell>
        <mxCell id="MN-8AR3ypXYrp9H_DOzf-36" value="..." style="text;html=1;align=center;verticalAlign=middle;whiteSpace=wrap;rounded=0;fontStyle=1" vertex="1" parent="1">
          <mxGeometry x="890" y="620" width="80" height="30" as="geometry" />
        </mxCell>
        <mxCell id="MN-8AR3ypXYrp9H_DOzf-37" value="" style="endArrow=classic;html=1;rounded=0;exitX=1;exitY=0.5;exitDx=0;exitDy=0;entryX=0;entryY=0.5;entryDx=0;entryDy=0;fontStyle=1" edge="1" parent="1" source="MN-8AR3ypXYrp9H_DOzf-35" target="MN-8AR3ypXYrp9H_DOzf-36">
          <mxGeometry width="50" height="50" relative="1" as="geometry">
            <mxPoint x="850" y="720" as="sourcePoint" />
            <mxPoint x="900" y="670" as="targetPoint" />
          </mxGeometry>
        </mxCell>
      </root>
    </mxGraphModel>
  </diagram>
</mxfile>
